<?xml version="1.0" encoding="UTF-8"?>
<svg width="200" height="100" version="1.1" viewBox="0 0 52.917 26.458" xmlns="http://www.w3.org/2000/svg">
 <g transform="translate(.73015)">
  <g transform="translate(-9.4844)">
   <g transform="matrix(.43887 0 0 .43887 15.721 -15.682)" style="shape-inside:url(#rect835);white-space:pre" aria-label=" sni">
    <path d="m52.769 82.901c0-5.2832-6.0452-6.4008-7.6708-6.7056-3.9624-0.7112-6.6548-1.2192-6.6548-3.302 0-1.5748 1.5748-2.8956 5.334-2.8956 3.81 0 4.064 1.9304 4.1656 2.9464 0.0508 0.7112 0.1524 1.6256 1.7272 1.6256 1.778 0 1.778-1.0668 1.778-2.0828v-3.5052c0-0.8128 0-2.0828-1.524-2.0828-1.016 0-1.3716 0.7112-1.4732 1.016-1.3208-0.762-2.9972-1.016-4.572-1.016-7.3152 0-8.5344 4.064-8.5344 5.9944 0 4.6228 5.4864 5.6388 7.366 5.9944 0.4064 0.1016 2.8956 0.5588 3.0988 0.5588 1.6764 0.4064 3.8608 1.4224 3.8608 3.4544 0 3.556-4.7244 3.556-5.4356 3.556-3.81 0-4.7752-2.54-5.3848-4.6736-0.1524-0.6096-0.3556-1.27-1.7272-1.27-1.778 0-1.778 1.0668-1.778 2.0828v4.8768c0 0.8128 0 2.0828 1.524 2.0828 1.27 0 1.6764-1.3208 1.778-1.7272 1.6256 1.3208 3.6068 1.7272 5.5372 1.7272 6.7056 0 8.5852-3.8608 8.5852-6.6548z"/>
    <path d="m83.3 87.727c0-1.5748-1.2192-1.5748-2.032-1.5748h-2.7432v-11.684c0-5.4864-3.1496-7.4168-7.3152-7.4168-2.9464 0-5.4864 1.0668-7.4676 2.8956 0-1.8796 0-2.5908-2.032-2.5908h-4.2164c-0.8128 0-2.032 0-2.032 1.5748 0 1.524 1.27 1.524 2.032 1.524h2.7432v15.697h-2.7432c-0.8128 0-2.032 0-2.032 1.5748 0 1.524 1.27 1.524 2.032 1.524h8.9916c0.762 0 2.032 0 2.032-1.524 0-1.5748-1.2192-1.5748-2.032-1.5748h-2.7432v-8.9408c0-5.334 4.3688-7.0612 7.1628-7.0612 3.556 0 4.1148 1.778 4.1148 4.6228v11.379h-2.7432c-0.762 0-2.032 0-2.032 1.524 0 1.5748 1.2192 1.5748 2.032 1.5748h8.9916c0.762 0 2.032 0 2.032-1.524z"/>
    <path d="m97.677 87.727c0-1.5748-1.27-1.5748-2.0828-1.5748h-2.2352v-16.713c0-1.5748-0.3048-2.0828-2.032-2.0828h-3.9624c-0.762 0-2.0828 0-2.0828 1.524 0 1.5748 1.3208 1.5748 2.0828 1.5748h2.4892v15.697h-2.7432c-0.8128 0-2.032 0-2.032 1.5748 0 1.524 1.27 1.524 2.032 1.524h8.5344c0.762 0 2.032 0 2.032-1.524zm-3.5052-26.111c0-1.3716-1.1684-2.54-2.54-2.54-1.5748 0-2.5908 1.27-2.5908 2.54 0 1.3716 1.1684 2.54 2.54 2.54 1.5748 0 2.5908-1.27 2.5908-2.54z"/>
   </g>
   <g aria-label="">
    <path d="m14.618 12.18v-3.146c0-2.3104 1.8844-4.1947 4.1947-4.1947 2.3104 0 4.1947 1.8844 4.1947 4.1947v3.146zm13.633 1.573c0-0.86844-0.70458-1.573-1.573-1.573h-0.52434v-3.146c0-4.0309-3.3099-7.3408-7.3408-7.3408s-7.3408 3.3099-7.3408 7.3408v3.146h-0.52434c-0.86844 0-1.573 0.70458-1.573 1.573v9.4381c0 0.86844 0.70458 1.573 1.573 1.573h15.73c0.86844 0 1.573-0.70458 1.573-1.573z" stroke-width=".15293"/>
   </g>
   <g transform="matrix(2.3311 0 0 2.3311 -218.92 -64.444)" fill="#e6e6e6" style="shape-inside:url(#rect851);white-space:pre" aria-label="">
    <path d="m104.12 34.57c0-0.0689-0.0276-0.1378-0.0772-0.18741l-0.37483-0.37483c-0.0496-0.04961-0.11851-0.07717-0.18741-0.07717s-0.13781 0.02756-0.18742 0.07717l-1.808 1.8107-0.81029-0.81304c-0.0496-0.04961-0.11851-0.07717-0.18741-0.07717s-0.13781 0.02756-0.18742 0.07717l-0.37482 0.37483c-0.04961 0.04961-0.07717 0.11851-0.07717 0.18741 0 0.0689 0.02756 0.1378 0.07717 0.18741l0.9977 0.9977 0.37482 0.37483c0.0496 0.04961 0.11852 0.07717 0.18742 0.07717s0.1378-0.02756 0.18741-0.07717l2.3702-2.3702c0.0496-0.04961 0.0772-0.11851 0.0772-0.18741z" fill="#e6e6e6"/>
   </g>
  </g>
 </g>
</svg>
